<svg width="139" height="145" viewBox="0 0 139 145" fill="none" xmlns="http://www.w3.org/2000/svg">
<line x1="120.072" y1="2.5" x2="49.5281" y2="2.5" stroke="#C6C6C6" stroke-width="5"/>
<rect x="24" y="17" width="108" height="109" fill="white"/>
<mask id="path-3-inside-1_101_65" fill="white">
<path d="M0 43.5992C0 33.2358 0 28.0541 2.06994 24.1195C3.76503 20.8974 6.39737 18.265 9.61947 16.5699C13.5541 14.5 18.7358 14.5 29.0992 14.5V14.5V130.5V130.5C18.7358 130.5 13.5541 130.5 9.61947 128.43C6.39737 126.735 3.76503 124.103 2.06994 120.881C0 116.946 0 111.764 0 101.401V43.5992Z"/>
</mask>
<path d="M0 43.5992C0 33.2358 0 28.0541 2.06994 24.1195C3.76503 20.8974 6.39737 18.265 9.61947 16.5699C13.5541 14.5 18.7358 14.5 29.0992 14.5V14.5V130.5V130.5C18.7358 130.5 13.5541 130.5 9.61947 128.43C6.39737 126.735 3.76503 124.103 2.06994 120.881C0 116.946 0 111.764 0 101.401V43.5992Z" fill="white"/>
<path d="M-5 32.5C-5 19.7975 5.29745 9.5 18 9.5H29.0992V19.5H18C10.8203 19.5 5 25.3203 5 32.5H-5ZM29.0992 135.5H18C5.29745 135.5 -5 125.203 -5 112.5H5C5 119.68 10.8203 125.5 18 125.5H29.0992V135.5ZM18 135.5C5.29745 135.5 -5 125.203 -5 112.5V32.5C-5 19.7975 5.29745 9.5 18 9.5V19.5C10.8203 19.5 5 25.3203 5 32.5V112.5C5 119.68 10.8203 125.5 18 125.5V135.5ZM29.0992 14.5V130.5V14.5Z" fill="#C6C6C6" mask="url(#path-3-inside-1_101_65)"/>
<line y1="-2.5" x2="70.5436" y2="-2.5" transform="matrix(-1 0 0 1 122.717 145)" stroke="#C6C6C6" stroke-width="5"/>
<mask id="path-6-inside-2_101_65" fill="white">
<path d="M28.3865 18C28.3865 8.05887 36.4454 0 46.3865 0H109.173V38.6667H46.3865C36.4454 38.6667 28.3865 30.6078 28.3865 20.6667V18Z"/>
</mask>
<path d="M28.3865 18C28.3865 8.05887 36.4454 0 46.3865 0H109.173V38.6667H46.3865C36.4454 38.6667 28.3865 30.6078 28.3865 20.6667V18Z" fill="white"/>
<path d="M23.3865 18C23.3865 5.29745 33.684 -5 46.3865 -5H109.173V5H46.3865C39.2068 5 33.3865 10.8203 33.3865 18H23.3865ZM109.173 43.6667H46.3865C33.684 43.6667 23.3865 33.3692 23.3865 20.6667H33.3865C33.3865 27.8464 39.2068 33.6667 46.3865 33.6667H109.173V43.6667ZM46.3865 43.6667C33.684 43.6667 23.3865 33.3692 23.3865 20.6667V18C23.3865 5.29745 33.684 -5 46.3865 -5V5C39.2068 5 33.3865 10.8203 33.3865 18V20.6667C33.3865 27.8464 39.2068 33.6667 46.3865 33.6667V43.6667ZM109.173 0V38.6667V0Z" fill="#C6C6C6" mask="url(#path-6-inside-2_101_65)"/>
<mask id="path-8-inside-3_101_65" fill="white">
<path d="M27.8593 127C27.8593 136.941 35.9182 145 45.8593 145H108.646V106.333H45.8593C35.9182 106.333 27.8593 114.392 27.8593 124.333V127Z"/>
</mask>
<path d="M27.8593 127C27.8593 136.941 35.9182 145 45.8593 145H108.646V106.333H45.8593C35.9182 106.333 27.8593 114.392 27.8593 124.333V127Z" fill="white"/>
<path d="M22.8593 127C22.8593 139.703 33.1568 150 45.8593 150H108.646V140H45.8593C38.6796 140 32.8593 134.18 32.8593 127H22.8593ZM108.646 101.333H45.8593C33.1568 101.333 22.8593 111.631 22.8593 124.333H32.8593C32.8593 117.154 38.6796 111.333 45.8593 111.333H108.646V101.333ZM45.8593 101.333C33.1568 101.333 22.8593 111.631 22.8593 124.333L22.8593 127C22.8593 139.703 33.1568 150 45.8593 150V140C38.6796 140 32.8593 134.18 32.8593 127V124.333C32.8593 117.154 38.6796 111.333 45.8593 111.333V101.333ZM108.646 145V106.333V145Z" fill="#C6C6C6" mask="url(#path-8-inside-3_101_65)"/>
<rect x="106.228" y="2.5" width="30.2718" height="140" rx="15.1359" fill="white" stroke="#C6C6C6" stroke-width="5"/>
</svg>
